<?xml version="1.0" encoding="utf-8"?>
<!-- Generator: Adobe Illustrator 25.4.1, SVG Export Plug-In . SVG Version: 6.00 Build 0)  -->
<svg version="1.1" id="Lager_1" xmlns="http://www.w3.org/2000/svg" xmlns:xlink="http://www.w3.org/1999/xlink" x="0px" y="0px"
	 viewBox="0 0 53.8 53.8" style="enable-background:new 0 0 53.8 53.8;" xml:space="preserve">
<style type="text/css">
	.st0{fill:#FFFFFF;}
	.st1{fill:#3FBDE4;}
	.st2{fill:none;}
</style>
<circle class="st0" cx="26.9" cy="26.9" r="26.9"/>
<polygon class="st0" points="4.6,40.3 4.6,49.1 12.9,49.1 "/>
<circle class="st1" cx="26.9" cy="26.9" r="22.6"/>
<polygon class="st1" points="8.4,38 8.4,45.4 15.3,45.4 "/>
<polygon class="st2" points="28.3,28.9 28.3,32.9 32.3,32.9 36.3,32.9 36.3,28.9 32.3,28.9 "/>
<polygon class="st2" points="32.3,20.8 28.3,20.8 28.3,24.9 32.3,24.9 36.3,24.9 36.3,20.8 "/>
<polygon class="st0" points="36.3,16.8 32.3,16.8 28.3,16.8 24.2,16.8 24.2,20.8 24.2,24.9 24.2,28.9 24.2,32.9 20.2,32.9 
	16.2,32.9 16.2,28.9 16.2,24.9 12.1,24.9 12.1,28.9 12.1,32.9 12.1,37 16.2,37 20.2,37 24.2,37 28.3,37 32.3,37 36.3,37 40.3,37 
	40.3,32.9 40.3,28.9 36.3,28.9 36.3,32.9 32.3,32.9 28.3,32.9 28.3,28.9 32.3,28.9 36.3,28.9 36.3,24.9 32.3,24.9 28.3,24.9 
	28.3,20.8 32.3,20.8 36.3,20.8 36.3,24.9 40.3,24.9 40.3,20.8 40.3,16.8 "/>
</svg>
