<svg id="Lager_1" data-name="Lager 1" xmlns="http://www.w3.org/2000/svg" viewBox="0 0 178.6 53.79"><defs><style>.cls-1{fill:#fff;}.cls-2{fill:#3fbde4;}.cls-3{fill:none;}</style></defs><title>logo</title><circle class="cls-1" cx="26.89" cy="26.89" r="26.89"/><polygon class="cls-1" points="4.64 40.28 4.64 49.13 12.85 49.13 4.64 40.28"/><circle class="cls-2" cx="26.9" cy="26.9" r="22.64"/><polygon class="cls-2" points="8.38 37.95 8.38 45.4 15.29 45.4 8.38 37.95"/><polygon class="cls-3" points="28.26 28.9 28.26 32.93 32.29 32.93 36.32 32.93 36.32 28.9 32.29 28.9 28.26 28.9"/><polygon class="cls-3" points="32.29 20.84 28.26 20.84 28.26 24.87 32.29 24.87 36.32 24.87 36.32 20.84 32.29 20.84"/><polygon class="cls-1" points="36.32 16.81 32.29 16.81 28.26 16.81 24.23 16.81 24.23 20.84 24.23 24.87 24.23 28.9 24.23 32.93 20.2 32.93 16.16 32.93 16.16 28.9 16.16 24.87 12.13 24.87 12.13 28.9 12.13 32.93 12.13 36.96 16.16 36.96 20.2 36.96 24.23 36.96 28.26 36.96 32.29 36.96 36.32 36.96 40.35 36.96 40.35 32.93 40.35 28.9 36.32 28.9 36.32 32.93 32.29 32.93 28.26 32.93 28.26 28.9 32.29 28.9 36.32 28.9 36.32 24.87 32.29 24.87 28.26 24.87 28.26 20.84 32.29 20.84 36.32 20.84 36.32 24.87 40.35 24.87 40.35 20.84 40.35 16.81 36.32 16.81"/><path class="cls-1" d="M86.24,36.53V51.81a6.34,6.34,0,0,1-1.07,3.79,5.06,5.06,0,0,1-6.83.91A6.06,6.06,0,0,1,77,54.72l2.23-1.2a2.22,2.22,0,0,0,2.05,1.3q2.23,0,2.23-3.82V36.53Z" transform="translate(-17.28 -20.04)"/><path class="cls-1" d="M93.81,36.4q3.09,0,4.11,2.29,1,2.47,1,8.63,0,1-.05,1.69-.26,3.09-.26,3.12a10.93,10.93,0,0,1-.75,3.07,4.23,4.23,0,0,1-4.08,2.29,4,4,0,0,1-4-2.31q-.65-1.3-1-5.82-.1-1.56-.1-2.78,0-5.4,1-7.87A3.62,3.62,0,0,1,91.27,37,5,5,0,0,1,93.81,36.4Zm0,18.5a1.43,1.43,0,0,0,1.48-.81,18.22,18.22,0,0,0,.91-6.24v-1.2q0-.88,0-1.33a18,18,0,0,0-.86-5.46,1.72,1.72,0,0,0-3,0,19.28,19.28,0,0,0-.86,5.48c0,.31,0,.77,0,1.38s0,.85,0,1.14q.08,4.47.94,6.24A1.47,1.47,0,0,0,93.81,54.9Z" transform="translate(-17.28 -20.04)"/><path class="cls-1" d="M106.7,36.53,111,57.32h-2.73L107,51.63h-3l-1.32,5.69H100l4.42-20.79ZM105.55,44l-.83,4.81h1.74Z" transform="translate(-17.28 -20.04)"/><path class="cls-1" d="M117,48l-1.33,3.07v6.26h-2.63V36.5h2.68v8.29l3.66-8.29h2.91l-3.53,8,3.69,12.81h-2.83Z" transform="translate(-17.28 -20.04)"/><path class="cls-1" d="M125,36.53h2.78V57.32H125Z" transform="translate(-17.28 -20.04)"/><path class="cls-1" d="M138.3,44.82l-2.42,7.64-2.44-7.64V57.37l-2.7-.05V36.53h2.78l2.34,7,2.31-7H141V57.32H138.3Z" transform="translate(-17.28 -20.04)"/><path class="cls-1" d="M155.16,36.53a3.82,3.82,0,0,1,3.27,1.33,6.37,6.37,0,0,1,.86,3.72q0,3.64-1.51,4.52,1.82,1,1.82,5.59a10,10,0,0,1-.34,2.84,4.24,4.24,0,0,1-.91,1.86,4.75,4.75,0,0,1-3.38.93h-4.55V36.53Zm-2.05,8.42h2.1q1.4,0,1.4-3a8,8,0,0,0-.16-1.9q-.28-1.14-1.25-1.14h-2.1Zm0,10h2.18q1.14,0,1.4-1.33a17.22,17.22,0,0,0,.08-2.23q0-4-1.4-4h-2.26Z" transform="translate(-17.28 -20.04)"/><path class="cls-1" d="M166.91,36.4q3.09,0,4.11,2.29,1,2.47,1,8.63,0,1-.05,1.69-.26,3.09-.26,3.12a10.92,10.92,0,0,1-.75,3.07,4.23,4.23,0,0,1-4.08,2.29,4,4,0,0,1-4-2.31q-.65-1.3-1-5.82-.1-1.56-.1-2.78,0-5.4,1-7.87A3.62,3.62,0,0,1,164.37,37,5,5,0,0,1,166.91,36.4Zm0,18.5a1.43,1.43,0,0,0,1.48-.81,18.18,18.18,0,0,0,.91-6.24v-1.2c0-.59,0-1,0-1.33a18,18,0,0,0-.86-5.46,1.72,1.72,0,0,0-3,0,19.32,19.32,0,0,0-.86,5.48q0,.47,0,1.38,0,.7,0,1.14.08,4.47.93,6.24A1.48,1.48,0,0,0,166.91,54.9Z" transform="translate(-17.28 -20.04)"/><path class="cls-1" d="M181.38,47.05l2.44,10.32h-2.7l-2.31-9.75H177.2l0,9.69h-2.7V36.53h4.57a5,5,0,0,1,2.62.7q2,1.46,2,5a6.5,6.5,0,0,1-.7,3,3.65,3.65,0,0,1-1.33,1.56Zm-4.18-1.85h1.69q2,0,2-3.12t-2-3.14H177.2Z" transform="translate(-17.28 -20.04)"/><path class="cls-1" d="M193.26,50h-1.74V47.57h4.37v5.25a5.81,5.81,0,0,1-.44,2.34q-1,2.31-4.08,2.31t-4.21-2.31a26.53,26.53,0,0,1-1-6.26,18.8,18.8,0,0,1-.08-1.95q0-1,.05-2a21.87,21.87,0,0,1,1-6.29q1.17-2.31,4.31-2.31a3.84,3.84,0,0,1,3.92,2.31,7.69,7.69,0,0,1,.6,2.52H193a4.72,4.72,0,0,0-.34-1.35,1.49,1.49,0,0,0-1.43-.91,1.58,1.58,0,0,0-1.66.91,25.83,25.83,0,0,0-.83,5.74q-.05,1.09-.05,1.17c0,.47,0,.84,0,1.12a24.06,24.06,0,0,0,1,6.08,1.7,1.7,0,0,0,1.56.88,1.65,1.65,0,0,0,1.64-.91,4.27,4.27,0,0,0,.29-1.66Z" transform="translate(-17.28 -20.04)"/></svg>